<svg id="active" xmlns="http://www.w3.org/2000/svg" width="24" height="24" viewBox="0 0 24 24">
  <rect id="Rectangle_75" data-name="Rectangle 75" width="24" height="24" fill="none"/>
  <path id="Path_332" data-name="Path 332" d="M287.422,240.371H283.46a1.038,1.038,0,0,0-.9.525l-1.711,3.016-4.3-7.591a1.037,1.037,0,0,0-.9-.526.966.966,0,0,0-.9.515l-2.368,4.062H269.5a1.037,1.037,0,1,0,0,2.075h3.48a1.036,1.036,0,0,0,.9-.516l1.76-3.017,4.31,7.613a1.039,1.039,0,0,0,.9.526h0a1.037,1.037,0,0,0,.9-.525l2.315-4.082h3.358a1.037,1.037,0,1,0,0-2.075Z" transform="translate(-266.459 -229.791)" fill="#fff"/>
</svg>
