<svg id="archive" xmlns="http://www.w3.org/2000/svg" width="24" height="24" viewBox="0 0 24 24">
  <rect id="Rectangle_72" data-name="Rectangle 72" width="24" height="24" fill="none"/>
  <g id="Group_264" data-name="Group 264" transform="translate(-324.486 -407.033)">
    <path id="Path_329" data-name="Path 329" d="M343.331,410.033h-13.69a3.158,3.158,0,0,0-3.155,3.155v3.226a.933.933,0,0,0,.933.933h.733v6.759a3.594,3.594,0,0,0,3.59,3.59h9.487a3.593,3.593,0,0,0,3.59-3.59v-6.759h.734a.933.933,0,0,0,.933-.933v-3.226A3.158,3.158,0,0,0,343.331,410.033Zm-14.979,3.155a1.291,1.291,0,0,1,1.289-1.289h13.69a1.291,1.291,0,0,1,1.289,1.289v2.293h-.558a.871.871,0,0,0-.176-.036h-14.8a.862.862,0,0,0-.175.036h-.558Zm14.6,10.918a1.726,1.726,0,0,1-1.724,1.724h-9.487a1.727,1.727,0,0,1-1.725-1.724v-6.759h12.936Z" fill="#fff"/>
    <rect id="Rectangle_73" data-name="Rectangle 73" width="6.182" height="2.419" rx="0.993" transform="translate(333.395 419.603)" fill="#fff"/>
  </g>
</svg>
