<svg id="bulb" xmlns="http://www.w3.org/2000/svg" width="24" height="24" viewBox="0 0 24 24">
  <rect id="Rectangle_66" data-name="Rectangle 66" width="24" height="24" fill="none"/>
  <g id="Group_239" data-name="Group 239" transform="translate(-160.926 -233.067)">
    <path id="Path_305" data-name="Path 305" d="M178.781,240.718a6,6,0,1,0-9.758,5.9,2.335,2.335,0,0,1,.883,1.768v.079a.924.924,0,0,0,.923.923h4.2a.963.963,0,0,0,.655-.308,1.014,1.014,0,0,0,.269-.693,2.3,2.3,0,0,1,.852-1.751A6.037,6.037,0,0,0,178.781,240.718Zm-3.167,4.514a4.2,4.2,0,0,0-1.408,2.315h-2.547a4.339,4.339,0,0,0-1.434-2.327,4.159,4.159,0,1,1,5.389.012Z" fill="#fff"/>
    <path id="Path_306" data-name="Path 306" d="M174.308,252.023H172.2a.953.953,0,0,0-.954.953v.9a2.01,2.01,0,0,0,4.019,0v-.9A.954.954,0,0,0,174.308,252.023Z" transform="translate(-0.331 -1.224)" fill="#fff"/>
  </g>
</svg>
