<svg id="copy" xmlns="http://www.w3.org/2000/svg" width="24" height="24" viewBox="0 0 24 24">
  <rect id="Rectangle_78" data-name="Rectangle 78" width="24" height="24" fill="none"/>
  <g id="Group_271" data-name="Group 271" transform="translate(-57.148 -320.456)">
    <path id="Path_336" data-name="Path 336" d="M75.722,322.456H68.916a2.287,2.287,0,0,0-2.285,2.284v9.819a2.287,2.287,0,0,0,2.285,2.285h6.807a2.287,2.287,0,0,0,2.285-2.285V324.74A2.287,2.287,0,0,0,75.722,322.456Zm.241,12.1a.242.242,0,0,1-.241.241H68.916a.242.242,0,0,1-.241-.241V324.74a.241.241,0,0,1,.241-.24h6.807a.241.241,0,0,1,.241.24Z" transform="translate(0.141 0)" fill="#fff"/>
    <path id="Path_337" data-name="Path 337" d="M69.913,338.05a1.021,1.021,0,0,0-1.022,1.022.241.241,0,0,1-.241.24H62.433a.241.241,0,0,1-.241-.24v-9.039a.241.241,0,0,1,.241-.24h1.712a1.022,1.022,0,1,0,0-2.043H62.433a2.286,2.286,0,0,0-2.285,2.284v9.039a2.287,2.287,0,0,0,2.285,2.284H68.65a2.287,2.287,0,0,0,2.285-2.284A1.022,1.022,0,0,0,69.913,338.05Z" transform="translate(0 0.115)" fill="#fff"/>
  </g>
</svg>
