<svg id="erase" xmlns="http://www.w3.org/2000/svg" width="24" height="24" viewBox="0 0 24 24">
  <rect id="Rectangle_53" data-name="Rectangle 53" width="24" height="24" fill="none"/>
  <path id="Path_298" data-name="Path 298" d="M70.353,217.53H64.561l5.731-5.731a2.448,2.448,0,0,0,0-3.464l-3.075-3.076a2.452,2.452,0,0,0-3.464,0l-7.175,7.176a2.451,2.451,0,0,0,0,3.463l1.631,1.632H56.517a1.082,1.082,0,0,0,0,2.163H70.353a1.082,1.082,0,1,0,0-2.163Zm-12.246-3.566,3.587-3.588,3.48,3.481-3.587,3.587a.287.287,0,0,1-.4,0l-3.076-3.075A.288.288,0,0,1,58.107,213.964Z" transform="translate(-51.435 -200.543)" fill="#fff"/>
</svg>
