<svg id="eye-slash" xmlns="http://www.w3.org/2000/svg" width="24" height="24" viewBox="0 0 24 24">
  <rect id="Rectangle_76" data-name="Rectangle 76" width="24" height="24" fill="none"/>
  <path id="Path_333" data-name="Path 333" d="M587.443,39.208a16.4,16.4,0,0,0-2.734-2.635l2.69-2.689a.756.756,0,0,0-1.069-1.069l-2.916,2.915A7.527,7.527,0,0,0,579.77,34.7c-3.434,0-6.281,2.821-7.672,4.5a1.938,1.938,0,0,0,0,2.47,16.339,16.339,0,0,0,2.734,2.635L572.141,47a.756.756,0,0,0,1.069,1.07l2.916-2.916a7.528,7.528,0,0,0,3.644,1.025c3.432,0,6.28-2.821,7.673-4.5A1.939,1.939,0,0,0,587.443,39.208Zm-14.181,1.505a.423.423,0,0,1,0-.541c.984-1.189,3.588-3.955,6.508-3.955a5.765,5.765,0,0,1,2.518.638l-1.151,1.151a2.777,2.777,0,0,0-1.367-.37,2.806,2.806,0,0,0-2.806,2.806,2.777,2.777,0,0,0,.369,1.367l-1.415,1.416A14.771,14.771,0,0,1,573.262,40.713Zm13.015,0c-.984,1.189-3.589,3.955-6.507,3.955a5.769,5.769,0,0,1-2.519-.638l1.152-1.151a2.775,2.775,0,0,0,1.367.37,2.806,2.806,0,0,0,2.806-2.806,2.777,2.777,0,0,0-.37-1.367l1.416-1.415a14.744,14.744,0,0,1,2.656,2.513A.423.423,0,0,1,586.278,40.713Z" transform="translate(-567.77 -28.739)" fill="#fff"/>
</svg>
