<svg id="eye" xmlns="http://www.w3.org/2000/svg" width="24" height="24" viewBox="0 0 24 24">
  <rect id="Rectangle_39" data-name="Rectangle 39" width="24" height="24" fill="none"/>
  <g id="Group_66" data-name="Group 66" transform="translate(-225.824 -72.912)">
    <path id="Path_52" data-name="Path 52" d="M245.387,83.35c-1.373-1.657-4.179-4.438-7.563-4.438s-6.191,2.78-7.563,4.438a1.911,1.911,0,0,0,0,2.434c1.372,1.657,4.179,4.438,7.563,4.438s6.19-2.78,7.563-4.438A1.913,1.913,0,0,0,245.387,83.35Zm-1.148,1.483c-.971,1.173-3.538,3.9-6.414,3.9s-5.444-2.726-6.414-3.9a.418.418,0,0,1,0-.532c.97-1.172,3.538-3.9,6.414-3.9s5.444,2.726,6.414,3.9A.418.418,0,0,1,244.238,84.833Z" fill="#fff"/>
    <path id="Path_53" data-name="Path 53" d="M239.614,82.789a2.766,2.766,0,1,0,2.766,2.766A2.765,2.765,0,0,0,239.614,82.789Z" transform="translate(-1.79 -0.988)" fill="#fff"/>
  </g>
</svg>
