<svg id="google" xmlns="http://www.w3.org/2000/svg" width="24" height="24" viewBox="0 0 24 24">
  <rect id="Rectangle_36" data-name="Rectangle 36" width="24" height="24" fill="none"/>
  <path id="iconfinder_google_1608914" d="M137.185,135.87h8.671A8.691,8.691,0,0,1,146,137.4a9.689,9.689,0,0,1-1.088,4.635,7.858,7.858,0,0,1-3.1,3.187,9.173,9.173,0,0,1-4.623,1.148,9.03,9.03,0,0,1-3.576-.724,9,9,0,0,1-4.886-4.886,9.2,9.2,0,0,1,0-7.152,9,9,0,0,1,4.886-4.886,9.029,9.029,0,0,1,3.576-.724,8.7,8.7,0,0,1,6.159,2.4l-2.5,2.4a5.056,5.056,0,0,0-3.66-1.423,5.488,5.488,0,0,0-2.852.777,5.85,5.85,0,0,0,0,10.047,5.488,5.488,0,0,0,2.852.777,6.1,6.1,0,0,0,1.914-.287,4.827,4.827,0,0,0,1.435-.718,5.193,5.193,0,0,0,.981-.981,4.571,4.571,0,0,0,.616-1.041,4.4,4.4,0,0,0,.269-.933h-5.215Z" transform="translate(-125 -125)" fill="#fff"/>
</svg>
