<svg id="hand" xmlns="http://www.w3.org/2000/svg" width="24" height="24" viewBox="0 0 24 24">
  <rect id="Rectangle_3" data-name="Rectangle 3" width="24" height="24" fill="none"/>
  <g id="Group_5" data-name="Group 5" transform="translate(-1421.413 -55.609)">
    <path id="Path_5" data-name="Path 5" d="M1570.732,111.738c-.432-.824-1.4-1.146-1.872-.8a1.2,1.2,0,0,0-.214,1.549,3.933,3.933,0,0,1-.5,4.467,1.2,1.2,0,0,0-.136,1.558c.384.44,1.4.342,2-.365A5.641,5.641,0,0,0,1570.732,111.738Z" transform="translate(-127.638 -45.261)" fill="#fff"/>
    <path id="Path_6" data-name="Path 6" d="M1438.691,64.933h0l-1.217-4.1a1.708,1.708,0,0,0-3.275.972l.716,2.411h.923a.405.405,0,0,1,0,.811h-7.515a1.587,1.587,0,0,0-.529,2.683h1.442a.405.405,0,0,1,0,.811h-1.442a1.587,1.587,0,0,0,.481,2.666h1.513a.4.4,0,0,1,.276.11h.01V71.3a.405.405,0,0,1-.286.693h-.878l-4.11.989c-.929.224-1.535.927-1.354,1.57s1.082.984,2.011.761l4.617-1.111v.043h4.79a4.735,4.735,0,0,0,4.719-4.359A9.19,9.19,0,0,0,1438.691,64.933ZM1437.507,72h-3.816a.405.405,0,0,1,0-.811h3.816a.405.405,0,0,1,0,.811Zm0-1.956h-3.816a.405.405,0,0,1,0-.811h3.816a.405.405,0,0,1,0,.811Zm0-1.956h-3.816a.405.405,0,0,1,0-.811h3.816a.405.405,0,0,1,0,.811Z" transform="translate(0)" fill="#fff"/>
  </g>
</svg>
