<svg id="image" xmlns="http://www.w3.org/2000/svg" width="24" height="24" viewBox="0 0 24 24">
  <rect id="Rectangle_48" data-name="Rectangle 48" width="24" height="24" fill="none"/>
  <path id="Path_294" data-name="Path 294" d="M124.3,80.941H112.483a3.093,3.093,0,0,0-3.09,3.09v7.528a3.093,3.093,0,0,0,3.09,3.089H124.3a3.093,3.093,0,0,0,3.089-3.089V84.031A3.093,3.093,0,0,0,124.3,80.941Zm-11.821,1.872H124.3a1.219,1.219,0,0,1,1.217,1.218V87.9l-2.5-1.234a.943.943,0,0,0-.976.091l-2.976,2.235-3.389-3.612a.937.937,0,0,0-1.205-.137L111.265,87.4V84.031A1.22,1.22,0,0,1,112.483,82.813ZM124.3,92.776H112.483a1.219,1.219,0,0,1-1.218-1.217v-1.9l3.592-2.415,3.418,3.644a.936.936,0,0,0,1.245.109l3.187-2.393,2.815,1.387v1.572A1.219,1.219,0,0,1,124.3,92.776Z" transform="translate(-106.393 -75.941)" fill="#fff"/>
</svg>
