<svg id="inbox" xmlns="http://www.w3.org/2000/svg" width="24" height="24" viewBox="0 0 24 24">
  <rect id="Rectangle_41" data-name="Rectangle 41" width="24" height="24" fill="none"/>
  <path id="Path_292" data-name="Path 292" d="M27.535,47.168a.923.923,0,0,0-.041-.2.9.9,0,0,0-.089-.182,1,1,0,0,0-.053-.109c-.014-.018-.034-.026-.049-.042a.931.931,0,0,0-.153-.134A.968.968,0,0,0,27,46.4a.938.938,0,0,0-.172-.057.95.95,0,0,0-.2-.041c-.022,0-.04-.013-.062-.013h-16a.619.619,0,0,0-.062.013.955.955,0,0,0-.2.041.686.686,0,0,0-.325.161,1.028,1.028,0,0,0-.153.133c-.014.017-.035.025-.048.043a.85.85,0,0,0-.054.109.9.9,0,0,0-.089.182.987.987,0,0,0-.041.2.946.946,0,0,0-.023.118v8.471a4.181,4.181,0,0,0,4.176,4.177h9.647a4.182,4.182,0,0,0,4.177-4.177V47.286A.949.949,0,0,0,27.535,47.168Zm-3.919,1.118-5.057,3.886L13.5,48.286Zm-.234,9.648H13.735a2.179,2.179,0,0,1-2.176-2.177V49.316l6.39,4.911a1,1,0,0,0,1.219,0l6.391-4.911v6.441A2.179,2.179,0,0,1,23.382,57.934Z" transform="translate(-6.559 -41.286)" fill="#fff"/>
</svg>
