<svg id="instagram" xmlns="http://www.w3.org/2000/svg" width="24" height="24" viewBox="0 0 24 24">
  <rect id="Rectangle_12" data-name="Rectangle 12" width="24" height="24" fill="none"/>
  <g id="XMLID_138_" transform="translate(-122.7 -199.1)">
    <path id="XMLID_142_" d="M142.28,205.857a4.079,4.079,0,0,0-2.337-2.337,5.838,5.838,0,0,0-1.941-.371c-.853-.037-1.125-.049-3.3-.049s-2.448.006-3.3.049a5.8,5.8,0,0,0-1.941.371,4.079,4.079,0,0,0-2.337,2.337,5.837,5.837,0,0,0-.371,1.941c-.037.853-.049,1.125-.049,3.3s.006,2.448.049,3.3a5.8,5.8,0,0,0,.371,1.941,4.079,4.079,0,0,0,2.337,2.337,5.837,5.837,0,0,0,1.941.371c.853.037,1.125.049,3.3.049s2.448-.006,3.3-.049a5.8,5.8,0,0,0,1.941-.371,4.079,4.079,0,0,0,2.337-2.337,5.838,5.838,0,0,0,.371-1.941c.037-.853.049-1.125.049-3.3s-.006-2.448-.049-3.3A5.8,5.8,0,0,0,142.28,205.857Zm-1.07,8.476a4.373,4.373,0,0,1-.278,1.484,2.478,2.478,0,0,1-.6.921,2.5,2.5,0,0,1-.921.6,4.409,4.409,0,0,1-1.484.278c-.847.037-1.094.049-3.233.049s-2.393-.006-3.233-.049a4.373,4.373,0,0,1-1.484-.278,2.478,2.478,0,0,1-.921-.6,2.5,2.5,0,0,1-.6-.921,4.409,4.409,0,0,1-.278-1.484c-.037-.847-.049-1.1-.049-3.233s.006-2.393.049-3.233a4.373,4.373,0,0,1,.278-1.484,2.478,2.478,0,0,1,.6-.921,2.5,2.5,0,0,1,.921-.6,4.409,4.409,0,0,1,1.484-.278c.847-.037,1.1-.049,3.233-.049s2.393.006,3.233.049a4.373,4.373,0,0,1,1.484.278,2.478,2.478,0,0,1,.921.6,2.5,2.5,0,0,1,.6.921,4.41,4.41,0,0,1,.278,1.484c.037.847.049,1.1.049,3.233S141.247,213.493,141.21,214.333Z" transform="translate(0 0)" fill="#fff"/>
    <path id="XMLID_145_" d="M193.806,266a4.306,4.306,0,1,0,4.306,4.306A4.308,4.308,0,0,0,193.806,266Zm0,7.1a2.8,2.8,0,1,1,2.8-2.8A2.8,2.8,0,0,1,193.806,273.1Z" transform="translate(-59.112 -59.206)" fill="#fff"/>
    <circle id="XMLID_143_" cx="0.91" cy="0.91" r="0.91" transform="translate(138.085 205.889)" fill="#fff"/>
  </g>
</svg>
