<svg id="logout" xmlns="http://www.w3.org/2000/svg" width="24" height="24" viewBox="0 0 24 24">
  <rect id="Rectangle_77" data-name="Rectangle 77" width="24" height="24" fill="none"/>
  <g id="Group_270" data-name="Group 270" transform="translate(-95.191 -279.809)">
    <path id="Path_334" data-name="Path 334" d="M110.522,297.282a1,1,0,0,0-1,1,.572.572,0,0,1-.571.57h-7.2a.572.572,0,0,1-.571-.57V284.37a.572.572,0,0,1,.571-.57h7.2a.572.572,0,0,1,.571.57,1,1,0,1,0,1.991,0,2.565,2.565,0,0,0-2.562-2.561h-7.2a2.565,2.565,0,0,0-2.562,2.561v13.907a2.565,2.565,0,0,0,2.562,2.561h7.2a2.565,2.565,0,0,0,2.562-2.561A1,1,0,0,0,110.522,297.282Z" transform="translate(0)" fill="#fff"/>
    <path id="Path_335" data-name="Path 335" d="M114.924,290.642l-3.774-3.774a1,1,0,0,0-1.408,1.408l2.074,2.074h-6.278a1,1,0,1,0,0,1.991h6.278l-2.074,2.073a1,1,0,1,0,1.408,1.408l3.774-3.773A1,1,0,0,0,114.924,290.642Z" transform="translate(-0.024 -0.022)" fill="#fff"/>
  </g>
</svg>
