<svg id="logos" xmlns="http://www.w3.org/2000/svg" width="24" height="24" viewBox="0 0 24 24">
  <rect id="Rectangle_28" data-name="Rectangle 28" width="24" height="24" fill="none"/>
  <g id="Group_42" data-name="Group 42" transform="translate(-311.366 -55.934)">
    <path id="Path_28" data-name="Path 28" d="M323.365,77.931c-.127,0-.254,0-.38-.009a9.966,9.966,0,0,1-3.249-.7.5.5,0,0,1-.314-.527c.005-.042.013-.083.02-.124a.575.575,0,0,0,.014-.1,4.429,4.429,0,0,1,4-4.679l2.365,0a1.454,1.454,0,0,0,1.439-1.262l.626-4.791a1.454,1.454,0,0,0-1.441-1.64h-5.874a1.007,1.007,0,0,0-1,.877l-.965,7.383a.5.5,0,0,1-.011.054,6.338,6.338,0,0,1-1.373,2.733.5.5,0,0,1-.719.032A9.992,9.992,0,0,1,313.424,69c-.023-.208-.035-.372-.043-.536,0-.069-.007-.142-.009-.215,0-.1-.006-.208-.006-.316a10,10,0,1,1,10,10Zm-2.909-1.5a8.88,8.88,0,0,0,2.572.5c.116.006.226.007.336.007a9,9,0,1,0-9-9c0,.095,0,.189.005.282,0,.069,0,.132.008.2.008.151.019.3.033.444a9.017,9.017,0,0,0,2.393,5.207,5.63,5.63,0,0,0,.814-1.86l.961-7.354a2.012,2.012,0,0,1,1.99-1.749h5.874a2.455,2.455,0,0,1,2.434,2.771l-.626,4.792a2.457,2.457,0,0,1-2.432,2.133h-2.33A3.4,3.4,0,0,0,320.456,76.427Z" transform="translate(0 0)" fill="#fff"/>
  </g>
</svg>
