<svg id="logo" xmlns="http://www.w3.org/2000/svg" width="24" height="24" viewBox="0 0 24 24">
  <g id="Group_1" data-name="Group 1" transform="translate(-1058.156 -1361.557)">
    <path id="Path_1" data-name="Path 1" d="M1082.156,1373.556a12,12,0,0,1-12,12c-.15,0-.3,0-.45-.01a11.945,11.945,0,0,1-3.9-.836,2.876,2.876,0,0,0,.047-.364,4.94,4.94,0,0,1,4.467-5.281h2.944a2.466,2.466,0,0,0,2.445-2.145l.791-6.052a2.469,2.469,0,0,0-2.447-2.786h-7.421a1.9,1.9,0,0,0-1.887,1.659l-1.219,9.325a7.333,7.333,0,0,1-1.595,3.185,11.958,11.958,0,0,1-3.7-7.413c0-.017,0-.034-.007-.054-.02-.194-.034-.391-.044-.587,0-.086-.007-.172-.01-.258-.005-.125-.007-.253-.007-.381a12,12,0,0,1,24,0Z" fill="#fff"/>
    <path id="Path_2" data-name="Path 2" d="M1120.285,1398.64a1.114,1.114,0,1,1-1.113-1.113A1.114,1.114,0,0,1,1120.285,1398.64Z" transform="translate(-45.181 -27.131)" fill="#fff"/>
    <path id="Path_3" data-name="Path 3" d="M1098.215,1398.64a1.114,1.114,0,1,1-1.113-1.113A1.114,1.114,0,0,1,1098.215,1398.64Z" transform="translate(-28.534 -27.131)" fill="#fff"/>
    <path id="Path_4" data-name="Path 4" d="M1106.118,1413.607a2.606,2.606,0,1,1-5.212,0Z" transform="translate(-32.245 -39.26)" fill="#fff"/>
  </g>
  <rect id="Rectangle_1" data-name="Rectangle 1" width="24" height="24" transform="translate(0)" fill="none"/>
</svg>
