<svg id="reply" xmlns="http://www.w3.org/2000/svg" width="24" height="24" viewBox="0 0 24 24">
  <rect id="Rectangle_70" data-name="Rectangle 70" width="24" height="24" fill="none"/>
  <g id="Group_259" data-name="Group 259" transform="translate(-265.044 -169.191)">
    <path id="Path_327" data-name="Path 327" d="M272.082,189.378a.9.9,0,0,1-.9-1.023l.436-3.311a6.623,6.623,0,0,1-2.526-5.96,6.44,6.44,0,0,1,3.028-4.587,8.666,8.666,0,0,1,5.822-1.225c4.383.576,7.543,4.122,7.046,7.9h0c-.484,3.676-4.268,6.249-8.509,5.85l-3.957,2.233A.9.9,0,0,1,272.082,189.378ZM276.719,175a6.685,6.685,0,0,0-3.618,1.02,4.656,4.656,0,0,0-2.212,3.3,4.946,4.946,0,0,0,2.227,4.6.9.9,0,0,1,.365.85l-.267,2.029,2.634-1.487a.9.9,0,0,1,.559-.11c3.372.433,6.425-1.479,6.792-4.258h0c.367-2.793-2.1-5.43-5.489-5.877A7.667,7.667,0,0,0,276.719,175Zm7.377,6.06h0Z" fill="#fff"/>
  </g>
</svg>
