<svg id="settings" xmlns="http://www.w3.org/2000/svg" width="24" height="24" viewBox="0 0 24 24">
  <rect id="Rectangle_51" data-name="Rectangle 51" width="24" height="24" fill="none"/>
  <g id="Group_216" data-name="Group 216" transform="translate(-66.646 -140.329)">
    <path id="Path_295" data-name="Path 295" d="M85.866,152l1.646-2.855a.994.994,0,0,0,.051-.9,10.243,10.243,0,0,0-1.235-2.107,1,1,0,0,0-.794-.394h-3.28l-1.647-2.854a1,1,0,0,0-.743-.493,10.36,10.36,0,0,0-2.448,0,1,1,0,0,0-.744.493l-1.646,2.854H71.746a1,1,0,0,0-.794.395,9.809,9.809,0,0,0-1.229,2.13,1,1,0,0,0,.057.884L71.425,152l-1.645,2.844a1,1,0,0,0-.056.885,9.712,9.712,0,0,0,1.228,2.129,1,1,0,0,0,.794.395h3.283l1.646,2.835a1,1,0,0,0,.713.486,8.33,8.33,0,0,0,1.252.088,8.454,8.454,0,0,0,1.252-.088,1,1,0,0,0,.714-.486l1.646-2.835h3.282a1,1,0,0,0,.794-.394,10.179,10.179,0,0,0,1.235-2.108.992.992,0,0,0-.051-.9Zm-2.015.5,1.674,2.9a8.4,8.4,0,0,1-.5.858H81.678a1,1,0,0,0-.862.5l-1.681,2.9a7.8,7.8,0,0,1-.989,0l-1.68-2.9a1,1,0,0,0-.862-.5H72.26a7.624,7.624,0,0,1-.5-.861l1.676-2.9a1,1,0,0,0,0-1l-1.677-2.9a7.783,7.783,0,0,1,.5-.861H75.6a1,1,0,0,0,.863-.5l1.676-2.906a8.3,8.3,0,0,1,1,0l1.676,2.906a1,1,0,0,0,.863.5h3.344a8.493,8.493,0,0,1,.5.857l-1.674,2.9A1,1,0,0,0,83.851,152.5Z" transform="translate(0 0)" fill="#fff"/>
    <path id="Path_296" data-name="Path 296" d="M80.784,150.4A2.663,2.663,0,0,0,79,149.369a2.908,2.908,0,0,0-.68,0,2.668,2.668,0,0,0,0,5.293,2.531,2.531,0,0,0,.68,0,2.656,2.656,0,0,0,1.782-1.026,2.8,2.8,0,0,0,.343-.585,2.7,2.7,0,0,0,0-2.065A2.8,2.8,0,0,0,80.784,150.4Z" transform="translate(-0.019 -0.021)" fill="#fff"/>
  </g>
</svg>
