<svg id="title-component" xmlns="http://www.w3.org/2000/svg" width="24" height="24" viewBox="0 0 24 24">
  <rect id="Rectangle_61" data-name="Rectangle 61" width="24" height="24" fill="none"/>
  <path id="Path_302" data-name="Path 302" d="M212.431,190.206H200.363a.966.966,0,0,0-.966.966v2.876a.966.966,0,1,0,1.931,0v-1.911h4.1v10.024h-.473a.966.966,0,0,0,0,1.931h2.877a.966.966,0,0,0,0-1.931h-.473V192.137h4.1v1.911a.966.966,0,1,0,1.931,0v-2.876A.966.966,0,0,0,212.431,190.206Z" transform="translate(-194.397 -185.206)" fill="#fff"/>
</svg>
