<svg id="trash" xmlns="http://www.w3.org/2000/svg" width="24" height="24" viewBox="0 0 24 24">
  <rect id="Rectangle_52" data-name="Rectangle 52" width="24" height="24" fill="none"/>
  <path id="Path_297" data-name="Path 297" d="M81.525,177.032H76.767v-1.138a1.121,1.121,0,1,0-2.242,0v1.138H69.767a1.121,1.121,0,0,0,0,2.242h.087l.969,10.916a1.121,1.121,0,0,0,1.117,1.022h7.413a1.121,1.121,0,0,0,1.117-1.022l.967-10.916h.089a1.121,1.121,0,1,0,0-2.242Zm-3.2,11.938H72.966l-.86-9.7h7.081Z" transform="translate(-63.646 -170.773)" fill="#fff"/>
</svg>
