<svg id="twitter" xmlns="http://www.w3.org/2000/svg" width="24" height="24" viewBox="0 0 24 24">
  <path id="Path_8" data-name="Path 8" d="M0,0H24V24H0Z" fill="none"/>
  <path id="iconfinder_03-twitter_104501_2_" data-name="iconfinder_03-twitter_104501 (2)" d="M19.574,11.865a6.531,6.531,0,0,1-1.885.517,3.288,3.288,0,0,0,1.443-1.816,6.571,6.571,0,0,1-2.084.8,3.285,3.285,0,0,0-5.593,2.994,9.32,9.32,0,0,1-6.766-3.43A3.287,3.287,0,0,0,5.7,15.31,3.273,3.273,0,0,1,4.217,14.9c0,.014,0,.028,0,.042A3.285,3.285,0,0,0,6.85,18.159a3.3,3.3,0,0,1-.865.115,3.252,3.252,0,0,1-.618-.059,3.286,3.286,0,0,0,3.066,2.28,6.624,6.624,0,0,1-4.86,1.359,9.335,9.335,0,0,0,14.372-7.865q0-.213-.009-.425A6.648,6.648,0,0,0,19.574,11.865Z" transform="translate(0.426 -5.326)" fill="#fff"/>
</svg>
